<svg width="16" height="16" viewBox="0 0 16 16" fill="none" xmlns="http://www.w3.org/2000/svg">
<g clip-path="url(#clip0)">
<path fill-rule="evenodd" clip-rule="evenodd" d="M13.6569 2.34338C14.0474 2.7339 14.0474 3.36707 13.6569 3.75759L9.41421 8.00023L13.6569 12.2429C14.0474 12.6334 14.0474 13.2666 13.6569 13.6571C13.2663 14.0476 12.6332 14.0476 12.2426 13.6571L8 9.41445L3.75736 13.6571C3.36682 14.0476 2.73367 14.0476 2.34315 13.6571C1.95262 13.2666 1.95261 12.6334 2.34315 12.2429L6.58579 8.00023L2.34315 3.75759C1.95262 3.36707 1.95262 2.7339 2.34315 2.34338C2.73367 1.95286 3.36683 1.95285 3.75736 2.34338L8 6.58602L12.2426 2.34338C12.6332 1.95285 13.2663 1.95286 13.6569 2.34338Z" fill="#222222"/>
</g>
<defs>
<clipPath id="clip0">
<rect width="16" height="16" fill="white"/>
</clipPath>
</defs>
</svg>
