<svg width="58" height="58" viewBox="0 0 58 58" fill="none" xmlns="http://www.w3.org/2000/svg">
<path d="M29 0L34.125 4.88866L40.7954 2.50718L43.4889 9.05773L50.5512 9.59521L50.3475 16.675L56.5806 20.0385L53.515 26.4234L57.8411 32.0313L52.4435 36.6173L54.1147 43.5L47.3185 45.4941L46.0458 52.4615L39.0261 51.5189L35.0294 57.3663L29 53.65L22.9706 57.3663L18.9739 51.5189L11.9542 52.4615L10.6815 45.4941L3.88526 43.5L5.55646 36.6173L0.158865 32.0313L4.48503 26.4234L1.41936 20.0385L7.65247 16.675L7.4488 9.59521L14.5111 9.05773L17.2046 2.50718L23.875 4.88866L29 0Z" fill="url(#paint0_linear)"/>
<path d="M14.8171 24.346V25.746C14.8171 26.446 14.5091 26.698 14.0191 26.698C13.5291 26.698 13.2211 26.446 13.2211 25.746V20.454C13.2211 19.754 13.5291 19.488 14.0191 19.488C14.5091 19.488 14.8171 19.754 14.8171 20.454V21.504H16.2731V20.552C16.2731 18.984 15.4891 18.088 13.9771 18.088C12.4651 18.088 11.6811 18.984 11.6811 20.552V25.648C11.6811 27.216 12.4651 28.112 13.9771 28.112C15.4891 28.112 16.2731 27.216 16.2731 25.648V24.346H14.8171ZM20.7215 28H22.3035L20.1615 22.568L22.3035 18.2H20.7635L18.7475 22.47V18.2H17.2075V28H18.7475V24.99L19.2235 24.094L20.7215 28ZM25.8743 23.506L26.5043 21.098V28H27.8903V18.2H26.1963L24.9363 22.246L24.3763 24.402V18.2H23.0043V28H24.5863L25.8743 23.506ZM34.9569 29.316V26.628H34.2849V18.2H29.9729L29.6229 25.354C29.5949 25.928 29.5109 26.292 29.2449 26.628H28.6429V29.316H30.1409V28H33.4309V29.316H34.9569ZM31.4149 19.6H32.7169V26.628H30.7009C30.9529 26.39 31.0929 26.068 31.1349 25.326L31.4149 19.6ZM39.3289 28H40.9109L38.7689 22.568L40.9109 18.2H39.3709L37.3549 22.47V18.2H35.8149V28H37.3549V24.99L37.8309 24.094L39.3289 28ZM45.0278 18.2H42.7738L41.2058 28H42.6198L42.8858 26.222H44.7758L45.0418 28H46.5958L45.0278 18.2ZM43.8238 19.936L44.5658 24.892H43.0818L43.8238 19.936ZM19.4856 34.524H20.6756V42H22.2156V32.2H21.1796C20.9416 32.858 20.6756 33.432 19.4856 33.432V34.524ZM25.4984 34.454C25.4984 33.754 25.8064 33.488 26.2964 33.488C26.7864 33.488 27.0944 33.754 27.0944 34.454V39.746C27.0944 40.446 26.7864 40.712 26.2964 40.712C25.8064 40.712 25.4984 40.446 25.4984 39.746V34.454ZM23.9584 39.648C23.9584 41.216 24.7844 42.112 26.2964 42.112C27.8084 42.112 28.6344 41.216 28.6344 39.648V34.552C28.6344 32.984 27.8084 32.088 26.2964 32.088C24.7844 32.088 23.9584 32.984 23.9584 34.552V39.648ZM32.705 33.628C32.705 33.194 32.887 33.012 33.209 33.012C33.517 33.012 33.713 33.194 33.713 33.628V36.988C33.713 37.422 33.517 37.604 33.209 37.604C32.887 37.604 32.705 37.422 32.705 36.988V33.628ZM31.725 36.918C31.725 37.926 32.243 38.486 33.209 38.486C34.175 38.486 34.693 37.926 34.693 36.918V33.698C34.693 32.69 34.175 32.13 33.209 32.13C32.243 32.13 31.725 32.69 31.725 33.698V36.918ZM33.209 42H34.119L37.983 32.2H37.073L33.209 42ZM37.563 37.212C37.563 36.778 37.745 36.596 38.067 36.596C38.375 36.596 38.571 36.778 38.571 37.212V40.572C38.571 41.006 38.375 41.188 38.067 41.188C37.745 41.188 37.563 41.006 37.563 40.572V37.212ZM36.583 40.502C36.583 41.51 37.101 42.07 38.067 42.07C39.033 42.07 39.551 41.51 39.551 40.502V37.282C39.551 36.274 39.033 35.714 38.067 35.714C37.101 35.714 36.583 36.274 36.583 37.282V40.502Z" fill="white"/>
<defs>
<linearGradient id="paint0_linear" x1="29" y1="0" x2="29" y2="58" gradientUnits="userSpaceOnUse">
<stop stop-color="#FC248C"/>
<stop offset="1" stop-color="#D8197F"/>
</linearGradient>
</defs>
</svg>
