<svg width="50" height="59" viewBox="0 0 50 59" fill="none" xmlns="http://www.w3.org/2000/svg">
<g clip-path="url(#clip0)">
<path fill-rule="evenodd" clip-rule="evenodd" d="M0 5.10003L0.209869 4.30107L0.3731 3.82169L0.544104 3.29904L0.781178 2.64988L1.12707 1.93082L1.4069 1.31828L1.8072 0.725722L2.11423 0.372848L2.28912 0.209727L2.50677 0.083225L2.66223 0.013316L2.91485 0L3.27629 0.006658L3.59498 0.322913L4.01471 1.022L4.24013 1.60791L4.81144 2.79969L5.09515 3.97815L5.25838 4.86034L5.20397 5.12L0 5.10003Z" fill="#BF1A72"/>
<path fill-rule="evenodd" clip-rule="evenodd" d="M49.9547 5.10003L49.7448 4.30107L49.5816 3.82169L49.4106 3.29904L49.1735 2.64988L48.8276 1.93082L48.5478 1.31828L48.1475 0.725722L47.8404 0.372848L47.6655 0.209727L47.4479 0.083225L47.2924 0.013316L47.0398 0L46.6784 0.006658L46.3597 0.322913L45.94 1.022L45.7145 1.60791L45.1432 2.79969L44.8595 3.97815L44.6963 4.86034L44.7507 5.12L49.9547 5.10003Z" fill="#BF1A72"/>
<path fill-rule="evenodd" clip-rule="evenodd" d="M4.95089 58.425L11.8221 52.3647L18.7795 58.5072L25.1963 52.9053L31.6131 58.5072L38.5783 52.3647L45.4496 58.4328L45.4652 7.41966V6.7537L45.5436 5.92711L45.6337 5.28465L45.8178 4.41497L46.0098 3.71767L46.2291 2.96552L46.5856 1.94306L46.8794 1.21833L47.4514 0.00391746L3 0L3.45834 1.04988L3.74823 1.7511L3.97936 2.35831L4.17132 2.98119L4.45338 3.99189L4.80203 5.68423L4.91172 6.65968L4.94698 7.42358L4.95089 58.425Z" fill="url(#paint0_linear)"/>
<path d="M10.2194 16.3229H11.9444V25.3229H13.5944V16.3229H15.3194V14.8229H10.2194V16.3229ZM17.5611 17.2379C17.5611 16.4879 17.8911 16.2029 18.4161 16.2029C18.9411 16.2029 19.2711 16.4879 19.2711 17.2379V22.9079C19.2711 23.6579 18.9411 23.9429 18.4161 23.9429C17.8911 23.9429 17.5611 23.6579 17.5611 22.9079V17.2379ZM15.9111 22.8029C15.9111 24.4829 16.7961 25.4429 18.4161 25.4429C20.0361 25.4429 20.9211 24.4829 20.9211 22.8029V17.3429C20.9211 15.6629 20.0361 14.7029 18.4161 14.7029C16.7961 14.7029 15.9111 15.6629 15.9111 17.3429V22.8029ZM24.4834 14.8229H21.9934V25.3229H24.5884C26.2384 25.3229 27.0934 24.4529 27.0934 22.8329V21.9779C27.0934 20.8679 26.7484 20.0729 25.8634 19.7279C26.5984 19.3829 26.9284 18.6929 26.9284 17.6129V17.2379C26.9284 15.6179 26.1934 14.8229 24.4834 14.8229ZM24.3784 20.5979C25.1284 20.5979 25.4434 20.8979 25.4434 21.8729V22.7879C25.4434 23.5679 25.1434 23.8229 24.5884 23.8229H23.6434V20.5979H24.3784ZM24.4384 16.3229C25.0234 16.3229 25.2784 16.6529 25.2784 17.4029V17.9879C25.2784 18.8279 24.9034 19.0979 24.2884 19.0979H23.6434V16.3229H24.4384ZM31.7471 14.8229H29.3321L27.6521 25.3229H29.1671L29.4521 23.4179H31.4771L31.7621 25.3229H33.4271L31.7471 14.8229ZM30.4571 16.6829L31.2521 21.9929H29.6621L30.4571 16.6829ZM36.6255 14.8229H34.1955V25.3229H35.8455V21.3779H36.6255C38.2755 21.3779 39.0855 20.4629 39.0855 18.7829V17.4179C39.0855 15.7379 38.2755 14.8229 36.6255 14.8229ZM36.6255 16.3229C37.1505 16.3229 37.4355 16.5629 37.4355 17.3129V18.8879C37.4355 19.6379 37.1505 19.8779 36.6255 19.8779H35.8455V16.3229H36.6255ZM21.7992 40.7329V37.8529H21.0792V28.8229H16.4592L16.0842 36.4879C16.0542 37.1029 15.9642 37.4929 15.6792 37.8529H15.0342V40.7329H16.6392V39.3229H20.1642V40.7329H21.7992ZM18.0042 30.3229H19.3992V37.8529H17.2392C17.5092 37.5979 17.6592 37.2529 17.7042 36.4579L18.0042 30.3229ZM24.3684 34.8229H26.2434V39.3229H27.9234V28.8229H26.2434V33.3229H24.3684V28.8229H22.7184V39.3229H24.3684V34.8229ZM30.4998 39.3229C30.5898 39.0529 30.6498 38.8879 30.6498 38.0329V36.3829C30.6498 35.4079 30.9798 35.0479 31.7298 35.0479H32.2998V39.3229H33.9498V28.8229H31.4598C29.7498 28.8229 29.0148 29.6179 29.0148 31.2379V32.0629C29.0148 33.1429 29.3598 33.8479 30.0948 34.1929C29.2698 34.5379 28.9998 35.3329 28.9998 36.4279V38.0479C28.9998 38.5579 28.9848 38.9329 28.8198 39.3229H30.4998ZM32.2998 30.3229V33.5479H31.6548C31.0398 33.5479 30.6648 33.2779 30.6648 32.4379V31.4029C30.6648 30.6529 30.9198 30.3229 31.5048 30.3229H32.2998Z" fill="white"/>
</g>
<defs>
<linearGradient id="paint0_linear" x1="25.2257" y1="0" x2="25.2257" y2="58.5072" gradientUnits="userSpaceOnUse">
<stop stop-color="#FD258D"/>
<stop offset="1" stop-color="#D6197E"/>
</linearGradient>
<clipPath id="clip0">
<rect width="50" height="58.5072" fill="white"/>
</clipPath>
</defs>
</svg>
