<svg width="64" height="64" fill="none" xmlns="http://www.w3.org/2000/svg"><path d="M11.2 64h41.6A11.2 11.2 0 0064 52.8V11.2A11.2 11.2 0 0052.8 0H11.2A11.2 11.2 0 000 11.2v41.6A11.2 11.2 0 0011.2 64z" fill="url(#paint0_radial)"/><path d="M44 56H20A12 12 0 018 44V20A12 12 0 0120 8h24a12 12 0 0112 12v24a12 12 0 01-12 12zM20 12.8a7.21 7.21 0 00-7.2 7.2v24a7.21 7.21 0 007.2 7.2h24a7.21 7.21 0 007.2-7.2V20a7.21 7.21 0 00-7.2-7.2H20z" fill="#fff"/><path d="M32 45.6a13.6 13.6 0 110-27.2 13.6 13.6 0 010 27.2zm0-22.4a8.8 8.8 0 100 17.6 8.8 8.8 0 000-17.6zM45.6 21.6a2.4 2.4 0 100-4.8 2.4 2.4 0 000 4.8z" fill="#fff"/><defs><radialGradient id="paint0_radial" cx="0" cy="0" r="1" gradientUnits="userSpaceOnUse" gradientTransform="rotate(180 -.64 31.35) scale(147.795)"><stop stop-color="#F9ED32"/><stop offset=".36" stop-color="#EE2A7B"/><stop offset=".44" stop-color="#D22A8A"/><stop offset=".6" stop-color="#8B2AB2"/><stop offset=".83" stop-color="#1B2AF0"/><stop offset=".88" stop-color="#002AFF"/></radialGradient></defs></svg>