<svg xmlns="http://www.w3.org/2000/svg" width="90.03" height="64.15" viewBox="0 0 1732 1234" shape-rendering="geometricPrecision" text-rendering="geometricPrecision" image-rendering="optimizeQuality" fill-rule="evenodd" clip-rule="evenodd"><defs><style>.fil0{fill:#fefefe}</style></defs><g id="Layer_x0020_1"><path class="fil0" d="M1732 976l-1-1h-11l-16 37-16-37h-11v59h9v-42l14 34h8l15-34-2 41 2 1h8l1-1zM1669 976l-1-1h-39v9h15v49l1 1h8v-50h15l1-1zM685 975c-57 0-89 32-97 98l-7 67c-2 28-15 43-40 47-6 0-10 3-10 10v26c0 6 4 9 10 9 54 0 84-31 90-95l6-59c2-22 6-36 12-43 7-8 20-12 38-12h43v198c0 6 3 9 9 9h31c6 0 9-3 9-9V984c0-6-3-9-9-9h-85zM334 1123V984c0-6-3-9-9-9h-33c-5 0-9 3-9 9v155c0 63 30 95 90 95 30 0 57-11 83-32l6 22c2 4 5 6 8 6h22c7 0 10-3 10-8V984c0-6-4-9-11-9h-30c-7 0-10 3-10 9v166c-19 23-42 34-70 34-31 0-47-21-47-61zM246 1115c0-79-43-119-129-119H52v-77h149c7 0 10-4 10-11v-29c0-7-3-10-10-10H10c-7 0-10 3-10 10v244c0 72 34 108 102 108h9c90 0 135-39 135-116zm-128-71c50 0 74 24 74 71 0 45-24 68-74 68h-16c-33 0-50-19-50-55v-84h66zM1524 1077h-117v-93c0-6-3-9-9-9h-32c-6 0-9 3-8 9v237c-1 6 2 9 8 9h32c6 0 9-3 9-9v-98h117v98c0 6 3 9 10 9h30c7 0 10-3 10-9V984c0-6-3-9-10-9h-30c-7 0-10 3-10 9v93zM1289 975h-31c-7 0-10 3-10 9v166c-19 23-42 34-70 34-31 0-47-21-47-61V984c0-6-3-9-9-9h-31c-7 0-11 3-11 9v155c0 63 30 95 90 95 32 0 60-11 84-32l4 22c3 4 6 6 9 6h22c6 0 10-3 10-8V984c0-6-4-9-10-9zM1297 879c0-7-3-10-9-10h-197c-7 0-11 3-11 10v29c0 7 4 11 11 11h197c6 0 9-4 9-11v-29zM969 1023c5 6 8 17 8 32v6l-57 3c-63 4-95 32-95 84 0 57 33 86 97 86 23 0 45-6 65-19l5 9c3 4 7 6 9 6h19c5 0 7-3 7-8v-167c0-59-32-89-99-89-28 0-54 4-76 13-3 3-6 6-6 9v29c1 4 3 7 5 8 3 0 6 1 8 1 20-8 44-12 69-12 20 0 34 3 41 9zm-47 164c-29 0-43-13-43-39 0-25 13-38 40-40l56-6 2 69c-19 11-37 16-55 16zM497 128c183-16 385-16 568 0C996 49 894 0 781 0S567 49 497 128zM1069 627c-178 14-390 15-576 0 70 81 173 132 288 132s218-51 288-132zM414 283c247-4 488-5 734 0 8 31 13 63 13 97 0 29-4 57-10 84-250 7-496 5-740 0-6-27-10-55-10-84 0-34 5-66 13-97z"/></g></svg>