<svg width="135" height="35" viewBox="0 0 135 35" fill="none" xmlns="http://www.w3.org/2000/svg">
<g clip-path="url(#clip0)">
<path d="M25.9868 14.2103C25.2763 12.9669 23.8553 12.434 22.2566 12.7893C20.8356 12.9669 19.5922 14.3879 19.2369 15.9866C19.0593 17.4076 19.7698 18.8286 21.0132 19.5392C20.8356 15.9866 22.079 14.7432 25.9868 14.2103ZM27.5855 20.7826L27.0526 21.3154C26.6973 21.4931 26.5197 21.6707 26.1644 21.6707C23.3224 23.2694 19.9474 22.2036 18.5264 19.3615C17.283 16.5195 18.704 13.1445 21.7237 12.0787C24.7434 11.013 27.7631 12.7893 28.6512 15.809C29.1841 17.7629 28.296 19.3615 27.5855 20.7826ZM31.3157 15.9866C30.7828 22.7365 27.4078 25.4009 20.4803 24.5128C22.7895 25.5785 25.8092 25.2233 27.9407 23.8022C30.4275 21.8483 31.4933 19.3615 31.3157 15.9866ZM27.0526 21.3154L27.5855 20.7826C29.1841 19.1839 29.5394 17.0524 28.8289 14.9208C27.7631 11.9011 24.5658 10.3025 21.5461 11.1906C18.5264 12.0787 16.7501 15.4537 17.4606 18.4734C18.1711 20.6049 19.5922 22.2036 21.9013 22.5588C23.6776 23.0917 25.6315 22.9141 27.0526 21.3154ZM23.5 28.9535C16.9277 28.9535 11.7765 23.8022 11.7765 17.23C11.7765 10.8353 16.9277 5.50648 23.3224 5.50648C29.717 5.50648 35.0459 10.8353 35.0459 17.23C35.2235 23.6246 29.8946 28.9535 23.5 28.9535Z" fill="#212121"/>
<path fill-rule="evenodd" clip-rule="evenodd" d="M17.283 17.0524C17.283 13.1445 20.6579 10.1248 24.5658 11.013C25.0987 11.1906 25.4539 11.1906 25.8092 11.3682L26.6973 11.9011C27.5855 12.6116 28.296 13.4998 28.6512 14.3879C29.5394 16.1642 29.3618 17.5852 28.6512 19.3615C28.1184 20.9602 26.3421 22.3812 24.5658 22.7365C20.6579 23.6246 17.283 20.6049 17.283 17.0524ZM28.1184 10.8353H28.296C29.0065 11.3682 29.5394 11.9011 29.8946 12.6116C30.0723 12.6116 30.0723 12.7893 30.0723 12.7893C30.2499 13.1445 30.4275 13.3221 30.6052 13.6774C31.6709 15.6313 31.6709 18.1181 30.7828 20.2497C30.6052 20.7826 30.2499 21.3154 29.8946 21.8483C29.3618 22.5588 28.8289 23.0917 28.296 23.6246L27.4078 24.1575C27.4078 24.1575 27.2302 24.3351 27.0526 24.3351C25.2763 25.2233 23.5 25.5785 21.5461 25.0456C20.4803 24.6904 19.5922 24.3351 18.704 23.8022C16.9277 22.3812 15.5067 20.072 15.3291 17.7629V16.5195H15.5067C15.5067 18.1181 15.6843 19.1839 16.3949 20.6049C17.283 22.5588 19.2369 23.9799 21.3685 24.5128C27.5855 25.9338 33.092 19.7168 30.4275 13.6774C29.5394 11.9011 28.296 11.013 28.1184 10.8353ZM28.1184 10.8353C27.9407 10.8353 28.1184 10.8353 27.9407 10.6577C28.1184 10.6577 28.1184 10.6577 28.1184 10.8353ZM27.9407 10.6577C27.9407 10.6577 27.9407 10.4801 27.9407 10.6577V10.6577ZM27.9407 10.6577L27.7631 10.4801L27.9407 10.6577ZM27.5855 10.4801H27.7631H27.5855ZM11.5989 16.8747V17.5852C11.5989 19.8944 12.6646 22.2036 13.7304 23.9799C14.9738 25.5785 16.3949 26.8219 18.3488 27.7101C19.4145 28.243 21.1908 28.7759 22.7895 28.7759H23.6776C26.5197 28.7759 29.5394 27.3548 31.4933 25.4009C31.8486 25.0456 32.3814 24.5128 32.7367 23.9799C33.092 23.447 33.4472 22.7365 33.6248 22.2036C34.1577 21.1378 34.8682 19.1839 34.8682 17.5852V16.8747C34.8682 13.855 33.2696 11.013 31.4933 9.05906C30.9604 8.52617 30.4275 8.17092 29.8946 7.81566C28.296 6.57226 25.9868 5.68411 23.6776 5.68411H22.7895C20.4803 5.68411 18.1711 6.57226 16.5725 7.81566C14.7962 8.88143 13.7304 10.4801 12.6646 12.2564C12.3094 13.3221 11.5989 15.2761 11.5989 16.8747Z" fill="#212121"/>
<path fill-rule="evenodd" clip-rule="evenodd" d="M19.4145 30.1969L25.9868 31.6179C30.0723 32.5061 34.6906 33.3942 38.7761 34.1047L40.0195 34.2824C40.73 34.46 41.6181 34.46 42.3287 34.2824C44.1049 34.1047 45.526 33.2166 46.4141 31.6179C46.4141 31.4403 46.5917 31.085 46.5917 30.9074C46.7694 30.5521 46.947 29.8416 46.947 29.3087C47.1246 28.7759 46.7694 27.3548 46.5917 26.8219V25.9338C46.2365 24.3351 43.0392 8.52618 43.0392 8.17092L42.8615 25.2233V28.0653C42.8615 28.7759 42.5063 29.4864 41.7958 29.8416C41.2629 30.3745 40.3747 30.1969 39.309 30.1969H19.4145ZM3.96084 26.2891L4.13847 9.23669V6.39463C4.3161 5.68412 4.49373 4.9736 5.20424 4.61834C5.91476 4.08546 6.62527 4.26309 7.69105 4.26309H27.5855L11.4213 0.88814L8.22393 0.355253C6.44764 -4.12017e-06 4.84899 -0.177633 3.25033 0.532882C2.89507 0.532882 2.71744 0.710511 2.53981 0.88814C1.65167 1.42103 1.11878 1.95391 0.763524 2.84206C0.230638 3.55257 0.230638 4.26309 0.053009 5.15123C0.053009 5.68412 0.230638 6.92752 0.408267 7.63803C0.408267 7.99329 0.408267 8.17092 0.585895 8.52618L3.78321 24.6904C3.78321 24.868 3.96084 26.1114 3.96084 26.2891ZM21.3685 20.072C20.8356 19.8944 20.1251 19.1839 19.9474 18.8286C19.5922 18.4734 19.4145 17.9405 19.2369 17.23C19.0593 16.1642 19.2369 15.2761 19.7698 14.3879C21.0132 12.434 23.6776 11.9011 25.4539 13.3222C25.8092 13.4998 26.3421 14.2103 26.5197 14.5656C25.6316 14.3879 25.0987 14.2103 24.0329 14.5656C22.6119 14.9208 21.5461 15.9866 21.1908 17.4076C21.0132 18.4734 21.0132 19.1839 21.3685 20.072ZM18.1711 16.8747C18.1711 18.1181 18.3488 19.1839 19.0593 20.072C20.1251 21.3155 21.5461 22.3812 23.1447 22.3812C24.2105 22.3812 24.921 22.2036 25.6316 21.8483C26.5197 21.4931 27.2302 20.7826 27.7631 20.072C29.0065 18.4734 29.0065 15.809 27.7631 14.0327C26.875 12.7893 25.2763 11.9011 23.6776 11.9011C22.6119 11.9011 22.079 11.9011 21.1908 12.2564C20.6579 12.6116 20.1251 12.9669 19.7698 13.3222C18.8817 14.2103 18.1711 15.6313 18.1711 16.8747Z" fill="#222222"/>
<path fill-rule="evenodd" clip-rule="evenodd" d="M6.09239 11.1906H11.2436V7.4604H6.09239V11.1906ZM33.8025 4.08546H39.1313V1.95391H33.8025V4.08546Z" fill="#212121"/>
</g>
<path d="M51.904 20C52.036 19.604 52.124 19.362 52.124 18.108V15.688C52.124 14.258 52.608 13.73 53.708 13.73H54.544V20H56.964V4.6H53.312C50.804 4.6 49.726 5.766 49.726 8.142V9.352C49.726 10.936 50.232 11.97 51.31 12.476C50.1 12.982 49.704 14.148 49.704 15.754V18.13C49.704 18.878 49.682 19.428 49.44 20H51.904ZM54.544 6.8V11.53H53.598C52.696 11.53 52.146 11.134 52.146 9.902V8.384C52.146 7.284 52.52 6.8 53.378 6.8H54.544ZM62.2956 4.6H58.7316V20H61.1516V14.214H62.2956C64.7156 14.214 65.9036 12.872 65.9036 10.408V8.406C65.9036 5.942 64.7156 4.6 62.2956 4.6ZM62.2956 6.8C63.0656 6.8 63.4836 7.152 63.4836 8.252V10.562C63.4836 11.662 63.0656 12.014 62.2956 12.014H61.1516V6.8H62.2956ZM72.5465 20H75.0325L71.6665 11.464L75.0325 4.6H72.6125L69.4445 11.31V4.6H67.0245V20H69.4445V15.27L70.1925 13.862L72.5465 20ZM80.6439 12.938L81.6339 9.154V20H83.8119V4.6H81.1499L79.1699 10.958L78.2899 14.346V4.6H76.1339V20H78.6199L80.6439 12.938ZM87.9426 6.8H92.1226V4.6H85.5226V20H92.1226V17.8H87.9426V13.29H91.2646V11.09H87.9426V6.8ZM101.35 20H103.726V18.262H104.628C107.048 18.262 108.236 16.92 108.236 14.456V10.254C108.236 7.79 107.048 6.448 104.628 6.448H103.726V4.6H101.35V6.448H100.448C98.0282 6.448 96.8402 7.79 96.8402 10.254V14.456C96.8402 16.92 98.0282 18.262 100.448 18.262H101.35V20ZM104.628 8.582C105.398 8.582 105.838 9 105.838 10.1V14.61C105.838 15.71 105.398 16.15 104.628 16.15H103.726V8.582H104.628ZM101.35 16.15H100.448C99.6782 16.15 99.2382 15.71 99.2382 14.61V10.1C99.2382 9 99.6782 8.582 100.448 8.582H101.35V16.15ZM112.086 8.142C112.086 7.042 112.57 6.624 113.34 6.624C114.11 6.624 114.594 7.042 114.594 8.142V16.458C114.594 17.558 114.11 17.976 113.34 17.976C112.57 17.976 112.086 17.558 112.086 16.458V8.142ZM109.666 16.304C109.666 18.768 110.964 20.176 113.34 20.176C115.716 20.176 117.014 18.768 117.014 16.304V8.296C117.014 5.832 115.716 4.424 113.34 4.424C110.964 4.424 109.666 5.832 109.666 8.296V16.304ZM117.883 6.8H120.413V20H122.833V6.8H125.363V4.6H117.883V6.8ZM128.651 8.142C128.651 7.042 129.135 6.624 129.905 6.624C130.675 6.624 131.159 7.042 131.159 8.142V16.458C131.159 17.558 130.675 17.976 129.905 17.976C129.135 17.976 128.651 17.558 128.651 16.458V8.142ZM126.231 16.304C126.231 18.768 127.529 20.176 129.905 20.176C132.281 20.176 133.579 18.768 133.579 16.304V8.296C133.579 5.832 132.281 4.424 129.905 4.424C127.529 4.424 126.231 5.832 126.231 8.296V16.304Z" fill="#222222"/>
<path d="M54.6982 30.0879C54.001 30.0879 53.4604 29.874 53.0767 29.4463C52.6958 29.0156 52.5054 28.4077 52.5054 27.6226C52.5054 26.8169 52.6987 26.1943 53.0854 25.7549C53.4751 25.3154 54.0288 25.0957 54.7466 25.0957C54.978 25.0957 55.2095 25.1206 55.4409 25.1704C55.6724 25.2202 55.854 25.2788 55.9858 25.3462L55.7617 25.9658C55.6006 25.9014 55.4248 25.8486 55.2344 25.8076C55.0439 25.7637 54.8755 25.7417 54.729 25.7417C53.7505 25.7417 53.2612 26.3657 53.2612 27.6138C53.2612 28.2056 53.3799 28.6597 53.6172 28.9761C53.8574 29.2925 54.2119 29.4507 54.6807 29.4507C55.082 29.4507 55.4937 29.3643 55.9155 29.1914V29.8374C55.5933 30.0044 55.1875 30.0879 54.6982 30.0879ZM59.0972 30.0879C58.3853 30.0879 57.8228 29.8711 57.4097 29.4375C56.9995 29.0039 56.7944 28.4019 56.7944 27.6313C56.7944 26.855 56.9849 26.2383 57.3657 25.7812C57.7495 25.3242 58.2637 25.0957 58.9082 25.0957C59.5117 25.0957 59.9893 25.2949 60.3408 25.6934C60.6924 26.0889 60.8682 26.6118 60.8682 27.2622V27.7236H57.5503C57.5649 28.2891 57.707 28.7183 57.9766 29.0112C58.249 29.3042 58.6313 29.4507 59.1235 29.4507C59.6421 29.4507 60.1548 29.3423 60.6616 29.1255V29.7759C60.4038 29.8872 60.1592 29.9663 59.9277 30.0132C59.6992 30.063 59.4224 30.0879 59.0972 30.0879ZM58.8994 25.7065C58.5127 25.7065 58.2036 25.8325 57.9722 26.0845C57.7437 26.3364 57.6089 26.6851 57.5679 27.1304H60.0859C60.0859 26.6704 59.9834 26.3188 59.7783 26.0757C59.5732 25.8296 59.2803 25.7065 58.8994 25.7065ZM65.3638 25.8076H63.7993V30H63.0698V25.8076H61.5229V25.1836H65.3638V25.8076ZM67.0469 27.1743H68.5322C69.7627 27.1743 70.3779 27.627 70.3779 28.5322C70.3779 29.0068 70.2168 29.3701 69.8945 29.6221C69.5752 29.874 69.1064 30 68.4883 30H66.3174V25.1836H67.0469V27.1743ZM67.0469 27.8027V29.3892H68.4531C68.8398 29.3892 69.1357 29.3218 69.3408 29.187C69.5459 29.0522 69.6484 28.8486 69.6484 28.5762C69.6484 28.3096 69.5532 28.1147 69.3628 27.9917C69.1753 27.8657 68.8647 27.8027 68.4312 27.8027H67.0469ZM79.1406 27.5874C79.1406 28.3169 78.9326 28.8984 78.5166 29.332C78.1035 29.7627 77.5249 30.0088 76.7808 30.0703V32.1621H76.0601V30.0703C75.3335 30.0146 74.7593 29.7656 74.3374 29.3232C73.9155 28.8809 73.7046 28.3022 73.7046 27.5874C73.7046 26.8579 73.9141 26.2778 74.333 25.8472C74.7549 25.4165 75.3394 25.1719 76.0864 25.1133V23.1621H76.7808V25.1133C77.5161 25.1807 78.0933 25.4341 78.5122 25.8735C78.9312 26.313 79.1406 26.8843 79.1406 27.5874ZM74.4692 27.5874C74.4692 28.1499 74.5981 28.5908 74.856 28.9102C75.1138 29.2295 75.5239 29.4155 76.0864 29.4683V25.7241C75.5444 25.7739 75.1387 25.9512 74.8691 26.2559C74.6025 26.5576 74.4692 27.0015 74.4692 27.5874ZM78.3848 27.5874C78.3848 26.4653 77.8501 25.8472 76.7808 25.7329V29.4683C77.3374 29.4126 77.7432 29.2251 77.998 28.9058C78.2559 28.5864 78.3848 28.147 78.3848 27.5874ZM84.5723 27.5874C84.5723 28.3726 84.3745 28.9863 83.979 29.4287C83.5835 29.8682 83.0371 30.0879 82.3398 30.0879C81.9092 30.0879 81.5269 29.9868 81.1929 29.7847C80.8589 29.5825 80.6011 29.2925 80.4194 28.9146C80.2378 28.5366 80.147 28.0942 80.147 27.5874C80.147 26.8022 80.3433 26.1914 80.7358 25.7549C81.1284 25.3154 81.6733 25.0957 82.3706 25.0957C83.0444 25.0957 83.5791 25.3198 83.9746 25.7681C84.373 26.2163 84.5723 26.8228 84.5723 27.5874ZM80.9028 27.5874C80.9028 28.2026 81.0259 28.6714 81.272 28.9937C81.5181 29.3159 81.8799 29.4771 82.3574 29.4771C82.835 29.4771 83.1968 29.3174 83.4429 28.998C83.6919 28.6758 83.8164 28.2056 83.8164 27.5874C83.8164 26.9751 83.6919 26.5107 83.4429 26.1943C83.1968 25.875 82.832 25.7153 82.3486 25.7153C81.8711 25.7153 81.5107 25.8721 81.2676 26.1855C81.0244 26.499 80.9028 26.9663 80.9028 27.5874ZM89.103 25.8076H87.5386V30H86.8091V25.8076H85.2622V25.1836H89.103V25.8076ZM94.2139 27.5874C94.2139 28.3726 94.0161 28.9863 93.6206 29.4287C93.2251 29.8682 92.6787 30.0879 91.9814 30.0879C91.5508 30.0879 91.1685 29.9868 90.8345 29.7847C90.5005 29.5825 90.2427 29.2925 90.061 28.9146C89.8794 28.5366 89.7886 28.0942 89.7886 27.5874C89.7886 26.8022 89.9849 26.1914 90.3774 25.7549C90.77 25.3154 91.3149 25.0957 92.0122 25.0957C92.686 25.0957 93.2207 25.3198 93.6162 25.7681C94.0146 26.2163 94.2139 26.8228 94.2139 27.5874ZM90.5444 27.5874C90.5444 28.2026 90.6675 28.6714 90.9136 28.9937C91.1597 29.3159 91.5215 29.4771 91.999 29.4771C92.4766 29.4771 92.8384 29.3174 93.0845 28.998C93.3335 28.6758 93.458 28.2056 93.458 27.5874C93.458 26.9751 93.3335 26.5107 93.0845 26.1943C92.8384 25.875 92.4736 25.7153 91.9902 25.7153C91.5127 25.7153 91.1523 25.8721 90.9092 26.1855C90.666 26.499 90.5444 26.9663 90.5444 27.5874ZM97.4219 30.0879C96.7246 30.0879 96.1841 29.874 95.8003 29.4463C95.4194 29.0156 95.229 28.4077 95.229 27.6226C95.229 26.8169 95.4224 26.1943 95.8091 25.7549C96.1987 25.3154 96.7524 25.0957 97.4702 25.0957C97.7017 25.0957 97.9331 25.1206 98.1646 25.1704C98.396 25.2202 98.5776 25.2788 98.7095 25.3462L98.4854 25.9658C98.3242 25.9014 98.1484 25.8486 97.958 25.8076C97.7676 25.7637 97.5991 25.7417 97.4526 25.7417C96.4741 25.7417 95.9849 26.3657 95.9849 27.6138C95.9849 28.2056 96.1035 28.6597 96.3408 28.9761C96.5811 29.2925 96.9355 29.4507 97.4043 29.4507C97.8057 29.4507 98.2173 29.3643 98.6392 29.1914V29.8374C98.3169 30.0044 97.9111 30.0879 97.4219 30.0879ZM102.748 30L102.603 29.3145H102.568C102.328 29.6162 102.087 29.8213 101.847 29.9297C101.61 30.0352 101.312 30.0879 100.955 30.0879C100.478 30.0879 100.103 29.9648 99.8301 29.7188C99.5605 29.4727 99.4258 29.1226 99.4258 28.6685C99.4258 27.6958 100.204 27.186 101.759 27.1392L102.577 27.1128V26.814C102.577 26.436 102.495 26.1577 102.331 25.979C102.169 25.7974 101.91 25.7065 101.553 25.7065C101.151 25.7065 100.697 25.8296 100.19 26.0757L99.9663 25.5176C100.204 25.3887 100.463 25.2876 100.744 25.2144C101.028 25.1411 101.312 25.1045 101.597 25.1045C102.171 25.1045 102.596 25.2319 102.871 25.4868C103.149 25.7417 103.289 26.1504 103.289 26.7129V30H102.748ZM101.1 29.4858C101.554 29.4858 101.91 29.3613 102.168 29.1123C102.429 28.8633 102.559 28.5146 102.559 28.0664V27.6313L101.83 27.6621C101.25 27.6826 100.831 27.7734 100.573 27.9346C100.318 28.0928 100.19 28.3403 100.19 28.6772C100.19 28.9409 100.27 29.1416 100.428 29.2793C100.589 29.417 100.813 29.4858 101.1 29.4858ZM108.386 30H107.648V25.8076H106.202C106.123 26.8506 106.013 27.6782 105.873 28.2905C105.732 28.9028 105.549 29.3511 105.323 29.6353C105.101 29.9194 104.816 30.0615 104.471 30.0615C104.312 30.0615 104.187 30.0439 104.093 30.0088V29.4683C104.157 29.4858 104.23 29.4946 104.312 29.4946C104.649 29.4946 104.917 29.1387 105.117 28.4268C105.316 27.7148 105.467 26.6338 105.569 25.1836H108.386V30ZM114.095 27.5874C114.095 28.3726 113.897 28.9863 113.501 29.4287C113.106 29.8682 112.56 30.0879 111.862 30.0879C111.432 30.0879 111.049 29.9868 110.715 29.7847C110.381 29.5825 110.124 29.2925 109.942 28.9146C109.76 28.5366 109.669 28.0942 109.669 27.5874C109.669 26.8022 109.866 26.1914 110.258 25.7549C110.651 25.3154 111.196 25.0957 111.893 25.0957C112.567 25.0957 113.102 25.3198 113.497 25.7681C113.896 26.2163 114.095 26.8228 114.095 27.5874ZM110.425 27.5874C110.425 28.2026 110.548 28.6714 110.794 28.9937C111.041 29.3159 111.402 29.4771 111.88 29.4771C112.357 29.4771 112.719 29.3174 112.965 28.998C113.214 28.6758 113.339 28.2056 113.339 27.5874C113.339 26.9751 113.214 26.5107 112.965 26.1943C112.719 25.875 112.354 25.7153 111.871 25.7153C111.394 25.7153 111.033 25.8721 110.79 26.1855C110.547 26.499 110.425 26.9663 110.425 27.5874ZM116.107 25.1836V27.2007H118.806V25.1836H119.535V30H118.806V27.8291H116.107V30H115.378V25.1836H116.107ZM125.239 27.5874C125.239 28.3726 125.042 28.9863 124.646 29.4287C124.25 29.8682 123.704 30.0879 123.007 30.0879C122.576 30.0879 122.194 29.9868 121.86 29.7847C121.526 29.5825 121.268 29.2925 121.086 28.9146C120.905 28.5366 120.814 28.0942 120.814 27.5874C120.814 26.8022 121.01 26.1914 121.403 25.7549C121.795 25.3154 122.34 25.0957 123.038 25.0957C123.711 25.0957 124.246 25.3198 124.642 25.7681C125.04 26.2163 125.239 26.8228 125.239 27.5874ZM121.57 27.5874C121.57 28.2026 121.693 28.6714 121.939 28.9937C122.185 29.3159 122.547 29.4771 123.024 29.4771C123.502 29.4771 123.864 29.3174 124.11 28.998C124.359 28.6758 124.483 28.2056 124.483 27.5874C124.483 26.9751 124.359 26.5107 124.11 26.1943C123.864 25.875 123.499 25.7153 123.016 25.7153C122.538 25.7153 122.178 25.8721 121.935 26.1855C121.691 26.499 121.57 26.9663 121.57 27.5874ZM130.429 26.3921C130.429 26.7056 130.338 26.9443 130.157 27.1084C129.978 27.2695 129.726 27.3779 129.401 27.4336V27.4731C129.811 27.5288 130.11 27.6489 130.297 27.8335C130.488 28.0181 130.583 28.2729 130.583 28.5981C130.583 29.0464 130.417 29.3921 130.086 29.6353C129.758 29.8784 129.278 30 128.645 30H126.522V25.1836H128.636C129.832 25.1836 130.429 25.5864 130.429 26.3921ZM129.854 28.5498C129.854 28.2891 129.754 28.1001 129.555 27.9829C129.358 27.8628 129.032 27.8027 128.575 27.8027H127.252V29.3892H128.592C129.433 29.3892 129.854 29.1094 129.854 28.5498ZM129.717 26.4624C129.717 26.228 129.626 26.0625 129.445 25.9658C129.266 25.8662 128.994 25.8164 128.627 25.8164H127.252V27.1743H128.487C128.938 27.1743 129.256 27.1187 129.44 27.0073C129.625 26.896 129.717 26.7144 129.717 26.4624Z" fill="#222222"/>
<defs>
<clipPath id="clip0">
<rect width="47" height="34.46" fill="white"/>
</clipPath>
</defs>
</svg>
