<svg xmlns="http://www.w3.org/2000/svg" width="66.62" height="64" viewBox="0 0 77 74" shape-rendering="geometricPrecision" text-rendering="geometricPrecision" image-rendering="optimizeQuality" fill-rule="evenodd" clip-rule="evenodd"><defs><style>.fil0{fill:#fefefe}</style></defs><g id="Layer_x0020_1"><g id="_2348058612256"><path class="fil0" d="M62 5l3 3-42 24L3 20l2-4 18 11L62 5zm-9-5l5 2-35 20-16-9 3-3 13 7L53 0zm15 11l2 3-47 27L1 28l1-4 21 13 45-26z"/><path class="fil0" d="M75 23c1 4 2 8 2 12 0 5-1 9-2 13l-1 2c-2 5-5 9-8 13-4 3-8 6-13 8s-10 3-15 3-10-1-15-3c-4-2-8-5-12-8-3-4-6-8-8-13-2-4-3-10-3-15v-2l23 13 50-28 2 5z"/></g></g></svg>