<svg width="126" height="124" viewBox="0 0 126 124" fill="none" xmlns="http://www.w3.org/2000/svg">
<path d="M67.0939 26.8165C65.7489 24.4628 63.0589 23.454 60.0325 24.1265C57.3425 24.4627 54.9887 27.1527 54.3161 30.1791C53.9799 32.8691 55.3249 35.5591 57.6787 36.9043C57.3425 30.1791 59.6963 27.8253 67.0939 26.8165ZM70.1203 39.2581L69.1115 40.2667C68.4389 40.6031 68.1027 40.9393 67.4301 40.9393C62.0501 43.9657 55.6611 41.9481 52.9711 36.5679C50.6173 31.1879 53.3073 24.799 59.0237 22.7814C64.7401 20.764 70.4565 24.1265 72.1377 29.8429C73.1465 33.5417 71.4653 36.5679 70.1203 39.2581ZM77.1817 30.1791C76.1729 42.9569 69.7839 48.0007 56.6699 46.3195C61.0413 48.3369 66.7577 47.6645 70.7927 44.9743C75.5003 41.2755 77.5179 36.5679 77.1817 30.1791ZM69.1115 40.2667L70.1203 39.2581C73.1465 36.2317 73.8191 32.1967 72.4741 28.1615C70.4565 22.4452 64.4039 19.419 58.6875 21.1002C52.9711 22.7814 49.6085 29.1703 50.9535 34.8867C52.2985 38.9217 54.9887 41.9481 59.3599 42.6205C62.7225 43.6293 66.4213 43.2931 69.1115 40.2667ZM62.3863 54.7259C49.9447 54.7259 40.1934 44.9743 40.1934 32.5329C40.1934 20.4276 49.9447 10.3399 62.0501 10.3399C74.1553 10.3399 84.2431 20.4276 84.2431 32.5329C84.5793 44.6381 74.4915 54.7259 62.3863 54.7259Z" fill="black"/>
<path fill-rule="evenodd" clip-rule="evenodd" d="M50.6176 32.1967C50.6176 24.7989 57.0064 19.0825 64.4042 20.7639C65.413 21.1001 66.0854 21.1001 66.758 21.4363L68.4392 22.4451C70.1206 23.7901 71.4656 25.4715 72.138 27.1527C73.8194 30.5153 73.4832 33.2053 72.138 36.5679C71.1294 39.5943 67.7668 42.2843 64.4042 42.9569C57.0064 44.6381 50.6176 38.9217 50.6176 32.1967ZM71.1294 20.4275H71.4656C72.8106 21.4363 73.8194 22.4451 74.4918 23.7901C74.8282 23.7901 74.8282 24.1265 74.8282 24.1265C75.1644 24.7989 75.5006 25.1351 75.837 25.8077C77.8544 29.5065 77.8544 34.2141 76.1732 38.2493C75.837 39.2581 75.1644 40.2667 74.4918 41.2755C73.4832 42.6205 72.4744 43.6293 71.4656 44.6381L69.7842 45.6469C69.7842 45.6469 69.448 45.9831 69.1118 45.9831C65.7492 47.6645 62.3866 48.3369 58.6878 47.3281C56.6702 46.6557 54.989 45.9831 53.3076 44.9743C49.945 42.2843 47.255 37.9129 46.9188 33.5417V31.1879H47.255C47.255 34.2141 47.5912 36.2317 48.9364 38.9217C50.6176 42.6205 54.3164 45.3107 58.3516 46.3195C70.1206 49.0095 80.5446 37.2405 75.5006 25.8077C73.8194 22.4451 71.4656 20.7639 71.1294 20.4275ZM71.1294 20.4275C70.793 20.4275 71.1294 20.4275 70.793 20.0913C71.1294 20.0913 71.1294 20.0913 71.1294 20.4275ZM70.793 20.0913C70.793 20.0913 70.793 19.7551 70.793 20.0913V20.0913ZM70.793 20.0913L70.4568 19.7551L70.793 20.0913ZM70.1206 19.7551H70.4568H70.1206ZM39.8574 31.8603V33.2053C39.8574 37.5767 41.8748 41.9481 43.8924 45.3107C46.2462 48.3369 48.9364 50.6907 52.6352 52.3721C54.6526 53.3809 58.0152 54.3897 61.0416 54.3897H62.7228C68.103 54.3897 73.8194 51.6995 77.5182 48.0007C78.1908 47.3281 79.1994 46.3195 79.872 45.3107C80.5445 44.3019 81.217 42.9569 81.5532 41.9481C82.562 39.9305 83.907 36.2317 83.907 33.2053V31.8603C83.907 26.1439 80.8808 20.7639 77.5182 17.0651C76.5094 16.0563 75.5006 15.3838 74.4918 14.7113C71.4656 12.3575 67.0942 10.6762 62.7228 10.6762H61.0416C56.6702 10.6762 52.2988 12.3575 49.2726 14.7113C45.91 16.7288 43.8924 19.7551 41.8748 23.1177C41.2024 25.1351 39.8574 28.8341 39.8574 31.8603Z" fill="black"/>
<path fill-rule="evenodd" clip-rule="evenodd" d="M54.6519 57.0796L67.0935 59.7696C74.8275 61.451 83.5701 63.1322 91.3041 64.4772L93.6579 64.8136C95.0029 65.1498 96.6841 65.1498 98.0292 64.8136C101.392 64.4772 104.082 62.796 105.763 59.7696C105.763 59.4334 106.099 58.7608 106.099 58.4246C106.436 57.7521 106.772 56.4071 106.772 55.3983C107.108 54.3896 106.436 51.6995 106.099 50.6907V49.0095C105.427 45.9831 99.3742 16.0563 99.3742 15.3838L99.0379 47.6645V53.0445C99.0379 54.3896 98.3654 55.7346 97.0204 56.4071C96.0116 57.4159 94.3303 57.0796 92.3129 57.0796H54.6519ZM25.3976 49.6821L25.7339 17.4013V12.0212C26.0702 10.6762 26.4064 9.33113 27.7514 8.65861C29.0965 7.64985 30.4415 7.98611 32.4591 7.98611H70.1199L39.5205 1.59722L33.4678 0.588449C30.1052 -0.084064 27.0789 -0.420321 24.0526 0.924707C23.3801 0.924707 23.0439 1.26096 22.7076 1.59722C21.0263 2.606 20.0175 3.61476 19.345 5.29606C18.3363 6.64107 18.3363 7.98611 18 9.66739C18 10.6762 18.3363 13.03 18.6725 14.375C18.6725 15.0475 18.6725 15.3838 19.0088 16.0563L25.0614 46.6557C25.0614 46.9919 25.3976 49.3457 25.3976 49.6821ZM58.3509 37.9129C57.3421 37.5767 55.9971 36.2317 55.6607 35.5591C54.9883 34.8867 54.6519 33.8779 54.3157 32.5329C53.9795 30.5153 54.3157 28.8341 55.3245 27.1527C57.6783 23.4539 62.7221 22.4451 66.0847 25.1353C66.7573 25.4715 67.7661 26.8165 68.1023 27.4891C66.4211 27.1527 65.4123 26.8165 63.3947 27.4891C60.7047 28.1615 58.6871 30.1791 58.0145 32.8691C57.6783 34.8867 57.6783 36.2317 58.3509 37.9129ZM52.2981 31.8603C52.2981 34.2141 52.6345 36.2317 53.9795 37.9129C55.9971 40.2669 58.6871 42.2843 61.7133 42.2843C63.7309 42.2843 65.0759 41.9481 66.4211 41.2755C68.1023 40.6031 69.4473 39.2581 70.4561 37.9129C72.8099 34.8867 72.8099 29.8429 70.4561 26.4803C68.7749 24.1265 65.7485 22.4451 62.7221 22.4451C60.7047 22.4451 59.6959 22.4451 58.0145 23.1177C57.0057 23.7901 55.9971 24.4627 55.3245 25.1353C53.6433 26.8165 52.2981 29.5065 52.2981 31.8603Z" fill="black"/>
<path fill-rule="evenodd" clip-rule="evenodd" d="M29.4326 21.1002H39.184V14.0388H29.4326V21.1002ZM81.8887 7.64993H91.9763V3.61484H81.8887V7.64993Z" fill="black"/>
<path d="M3.6608 105.141C3.85692 104.553 3.98766 104.194 3.98766 102.331V98.7351C3.98766 96.6105 4.70675 95.8261 6.34103 95.8261H7.58309V105.141H11.1785V82.2615H5.75269C2.02652 82.2615 0.424919 83.9938 0.424919 87.5239V89.3216C0.424919 91.675 1.17669 93.2112 2.77829 93.963C0.980575 94.7147 0.392228 96.4471 0.392228 98.8331V102.363C0.392228 103.475 0.359543 104.292 0 105.141H3.6608ZM7.58309 85.5301V92.5575H6.1776C4.83749 92.5575 4.02034 91.9691 4.02034 90.1387V87.8834C4.02034 86.2491 4.576 85.5301 5.85074 85.5301H7.58309ZM19.0998 82.2615H13.8047V105.141H17.4001V96.5451H19.0998C22.6952 96.5451 24.4602 94.5513 24.4602 90.8905V87.9161C24.4602 84.2553 22.6952 82.2615 19.0998 82.2615ZM19.0998 85.5301C20.2438 85.5301 20.8648 86.053 20.8648 87.6873V91.1193C20.8648 92.7536 20.2438 93.2766 19.0998 93.2766H17.4001V85.5301H19.0998ZM34.3297 105.141H38.0231L33.0222 92.4594L38.0231 82.2615H34.4277L29.721 92.2306V82.2615H26.1255V105.141H29.721V98.1141L30.8323 96.0222L34.3297 105.141ZM46.3601 94.6494L47.8309 89.0274V105.141H51.0668V82.2615H47.1119L44.1701 91.7077L42.8627 96.7413V82.2615H39.6595V105.141H43.353L46.3601 94.6494ZM57.2039 85.5301H63.4141V82.2615H53.6084V105.141H63.4141V101.873H57.2039V95.1723H62.1394V91.9038H57.2039V85.5301ZM77.1234 105.141H80.6535V102.559H81.9936C85.589 102.559 87.3541 100.565 87.3541 96.9047V90.6617C87.3541 87.0009 85.589 85.0071 81.9936 85.0071H80.6535V82.2615H77.1234V85.0071H75.7833C72.1882 85.0071 70.4232 87.0009 70.4232 90.6617V96.9047C70.4232 100.565 72.1882 102.559 75.7833 102.559H77.1234V105.141ZM81.9936 88.1776C83.1376 88.1776 83.7913 88.7986 83.7913 90.4329V97.1335C83.7913 98.7678 83.1376 99.4215 81.9936 99.4215H80.6535V88.1776H81.9936ZM77.1234 99.4215H75.7833C74.6396 99.4215 73.9859 98.7678 73.9859 97.1335V90.4329C73.9859 88.7986 74.6396 88.1776 75.7833 88.1776H77.1234V99.4215ZM93.0741 87.5239C93.0741 85.8896 93.7931 85.2686 94.9371 85.2686C96.0811 85.2686 96.8002 85.8896 96.8002 87.5239V99.8791C96.8002 101.513 96.0811 102.134 94.9371 102.134C93.7931 102.134 93.0741 101.513 93.0741 99.8791V87.5239ZM89.4786 99.6503C89.4786 103.311 91.4071 105.403 94.9371 105.403C98.4672 105.403 100.396 103.311 100.396 99.6503V87.7527C100.396 84.0919 98.4672 82 94.9371 82C91.4071 82 89.4786 84.0919 89.4786 87.7527V99.6503ZM101.687 85.5301H105.446V105.141H109.041V85.5301H112.8V82.2615H101.687V85.5301ZM117.685 87.5239C117.685 85.8896 118.404 85.2686 119.548 85.2686C120.692 85.2686 121.411 85.8896 121.411 87.5239V99.8791C121.411 101.513 120.692 102.134 119.548 102.134C118.404 102.134 117.685 101.513 117.685 99.8791V87.5239ZM114.089 99.6503C114.089 103.311 116.018 105.403 119.548 105.403C123.078 105.403 125.007 103.311 125.007 99.6503V87.7527C125.007 84.0919 123.078 82 119.548 82C116.018 82 114.089 84.0919 114.089 87.7527V99.6503Z" fill="#D6197E"/>
<path d="M7.81256 120.129C6.77672 120.129 5.97354 119.811 5.40347 119.176C4.83756 118.536 4.55469 117.633 4.55469 116.466C4.55469 115.269 4.84187 114.344 5.4164 113.692C5.99538 113.039 6.81802 112.712 7.88447 112.712C8.22826 112.712 8.5722 112.749 8.916 112.823C9.25994 112.897 9.52975 112.984 9.72557 113.084L9.39262 114.005C9.15327 113.909 8.89208 113.831 8.6092 113.77C8.32617 113.705 8.07598 113.672 7.85832 113.672C6.40455 113.672 5.67759 114.599 5.67759 116.453C5.67759 117.333 5.85394 118.007 6.2065 118.477C6.56337 118.947 7.09005 119.182 7.78656 119.182C8.38277 119.182 8.99445 119.054 9.62112 118.797V119.757C9.14242 120.005 8.53952 120.129 7.81256 120.129ZM14.3482 120.129C13.2905 120.129 12.4548 119.807 11.8411 119.163C11.2316 118.519 10.9269 117.624 10.9269 116.479C10.9269 115.326 11.2099 114.41 11.7757 113.731C12.3459 113.052 13.1099 112.712 14.0674 112.712C14.964 112.712 15.6736 113.008 16.1959 113.6C16.7182 114.188 16.9794 114.965 16.9794 115.931V116.617H12.05C12.0717 117.457 12.2828 118.094 12.6833 118.53C13.088 118.965 13.656 119.182 14.3873 119.182C15.1578 119.182 15.9195 119.021 16.6725 118.699V119.666C16.2894 119.831 15.926 119.949 15.5821 120.018C15.2426 120.092 14.8314 120.129 14.3482 120.129ZM14.0543 113.62C13.4798 113.62 13.0206 113.807 12.6768 114.181C12.3373 114.556 12.137 115.074 12.0761 115.735H15.8171C15.8171 115.052 15.6649 114.529 15.3601 114.168C15.0554 113.803 14.6202 113.62 14.0543 113.62ZM23.6586 113.77H21.3342V119.999H20.2504V113.77H17.9521V112.843H23.6586V113.77ZM26.1592 115.8H28.3659C30.1941 115.8 31.1081 116.473 31.1081 117.818C31.1081 118.523 30.8688 119.063 30.3899 119.437C29.9155 119.811 29.219 119.999 28.3007 119.999H25.0754V112.843H26.1592V115.8ZM26.1592 116.734V119.091H28.2484C28.8229 119.091 29.2626 118.991 29.5673 118.791C29.872 118.59 30.0243 118.288 30.0243 117.883C30.0243 117.487 29.8828 117.198 29.6 117.015C29.3214 116.828 28.8599 116.734 28.2159 116.734H26.1592ZM44.127 116.414C44.127 117.498 43.818 118.362 43.1999 119.006C42.5862 119.646 41.7265 120.012 40.621 120.103V123.211H39.5502V120.103C38.4707 120.02 37.6176 119.65 36.9908 118.993C36.364 118.336 36.0506 117.476 36.0506 116.414C36.0506 115.33 36.3619 114.468 36.9843 113.829C37.6111 113.189 38.4795 112.825 39.5893 112.738V109.839H40.621V112.738C41.7134 112.838 42.571 113.215 43.1934 113.868C43.8159 114.521 44.127 115.37 44.127 116.414ZM37.1866 116.414C37.1866 117.25 37.3781 117.905 37.7613 118.379C38.1443 118.854 38.7536 119.13 39.5893 119.209V113.646C38.7841 113.72 38.1813 113.983 37.7808 114.436C37.3847 114.884 37.1866 115.544 37.1866 116.414ZM43.0041 116.414C43.0041 114.747 42.2097 113.829 40.621 113.659V119.209C41.4479 119.126 42.0508 118.847 42.4294 118.373C42.8126 117.898 43.0041 117.246 43.0041 116.414ZM52.1969 116.414C52.1969 117.581 51.9031 118.493 51.3155 119.15C50.7279 119.803 49.9161 120.129 48.8801 120.129C48.2403 120.129 47.6723 119.979 47.1761 119.679C46.6799 119.378 46.2969 118.947 46.0269 118.386C45.7571 117.824 45.6222 117.167 45.6222 116.414C45.6222 115.248 45.9139 114.34 46.497 113.692C47.0803 113.039 47.8898 112.712 48.9258 112.712C49.9269 112.712 50.7213 113.045 51.3089 113.711C51.9008 114.377 52.1969 115.278 52.1969 116.414ZM46.7451 116.414C46.7451 117.328 46.928 118.025 47.2936 118.504C47.6593 118.982 48.1968 119.222 48.9062 119.222C49.6158 119.222 50.1533 118.984 50.519 118.51C50.8889 118.031 51.0739 117.333 51.0739 116.414C51.0739 115.504 50.8889 114.814 50.519 114.344C50.1533 113.87 49.6114 113.633 48.8932 113.633C48.1837 113.633 47.6483 113.866 47.2871 114.331C46.9258 114.797 46.7451 115.491 46.7451 116.414ZM58.9283 113.77H56.604V119.999H55.5202V113.77H53.2219V112.843H58.9283V113.77ZM66.5216 116.414C66.5216 117.581 66.2277 118.493 65.6401 119.15C65.0525 119.803 64.2407 120.129 63.2047 120.129C62.565 120.129 61.997 119.979 61.5008 119.679C61.0046 119.378 60.6215 118.947 60.3516 118.386C60.0818 117.824 59.9469 117.167 59.9469 116.414C59.9469 115.248 60.2385 114.34 60.8217 113.692C61.405 113.039 62.2145 112.712 63.2505 112.712C64.2516 112.712 65.046 113.045 65.6336 113.711C66.2255 114.377 66.5216 115.278 66.5216 116.414ZM61.0698 116.414C61.0698 117.328 61.2527 118.025 61.6183 118.504C61.9839 118.982 62.5215 119.222 63.2309 119.222C63.9405 119.222 64.478 118.984 64.8436 118.51C65.2136 118.031 65.3985 117.333 65.3985 116.414C65.3985 115.504 65.2136 114.814 64.8436 114.344C64.478 113.87 63.936 113.633 63.2178 113.633C62.5084 113.633 61.9729 113.866 61.6118 114.331C61.2504 114.797 61.0698 115.491 61.0698 116.414ZM71.2878 120.129C70.2518 120.129 69.4488 119.811 68.8785 119.176C68.3126 118.536 68.0297 117.633 68.0297 116.466C68.0297 115.269 68.3171 114.344 68.8916 113.692C69.4704 113.039 70.2931 112.712 71.3595 112.712C71.7035 112.712 72.0473 112.749 72.3912 112.823C72.735 112.897 73.0048 112.984 73.2008 113.084L72.8678 114.005C72.6283 113.909 72.3671 113.831 72.0843 113.77C71.8014 113.705 71.551 113.672 71.3334 113.672C69.8796 113.672 69.1528 114.599 69.1528 116.453C69.1528 117.333 69.329 118.007 69.6816 118.477C70.0386 118.947 70.5651 119.182 71.2616 119.182C71.858 119.182 72.4695 119.054 73.0963 118.797V119.757C72.6175 120.005 72.0146 120.129 71.2878 120.129ZM79.2008 119.999L78.9854 118.98H78.9334C78.5768 119.428 78.2188 119.733 77.8622 119.894C77.5101 120.051 77.0674 120.129 76.537 120.129C75.8283 120.129 75.2711 119.946 74.8657 119.581C74.4651 119.215 74.265 118.695 74.265 118.02C74.265 116.575 75.4212 115.818 77.7315 115.748L78.9468 115.709V115.265C78.9468 114.703 78.825 114.29 78.5813 114.025C78.3406 113.755 77.9558 113.62 77.4254 113.62C76.8282 113.62 76.1536 113.803 75.4004 114.168L75.068 113.339C75.4212 113.148 75.806 112.997 76.2235 112.889C76.6454 112.78 77.0673 112.725 77.4908 112.725C78.3436 112.725 78.975 112.915 79.3836 113.293C79.7966 113.672 80.0046 114.279 80.0046 115.115V119.999H79.2008ZM76.7524 119.235C77.4269 119.235 77.9558 119.05 78.3391 118.68C78.7269 118.31 78.92 117.792 78.92 117.126V116.479L77.837 116.525C76.9752 116.556 76.3527 116.69 75.9694 116.93C75.5905 117.165 75.4004 117.533 75.4004 118.033C75.4004 118.425 75.5192 118.723 75.754 118.928C75.9932 119.132 76.326 119.235 76.7524 119.235ZM87.5773 119.999H86.4808V113.77H84.3325C84.2151 115.319 84.0517 116.549 83.8437 117.459C83.6342 118.368 83.3623 119.035 83.0265 119.457C82.6967 119.879 82.2733 120.09 81.7607 120.09C81.5245 120.09 81.3388 120.064 81.1991 120.012V119.209C81.2942 119.235 81.4027 119.248 81.5245 119.248C82.0252 119.248 82.4233 118.719 82.7205 117.661C83.0161 116.603 83.2405 114.997 83.392 112.843H87.5773V119.999ZM96.0592 116.414C96.0592 117.581 95.7651 118.493 95.1767 119.15C94.5899 119.803 93.7787 120.129 92.7416 120.129C92.1028 120.129 91.5337 119.979 91.0375 119.679C90.5413 119.378 90.1595 118.947 89.8891 118.386C89.6187 117.824 89.4835 117.167 89.4835 116.414C89.4835 115.248 89.7762 114.34 90.3586 113.692C90.9424 113.039 91.7521 112.712 92.7877 112.712C93.7891 112.712 94.5839 113.045 95.1708 113.711C95.7636 114.377 96.0592 115.278 96.0592 116.414ZM90.6067 116.414C90.6067 117.328 90.7894 118.025 91.1549 118.504C91.5219 118.982 92.0582 119.222 92.7684 119.222C93.4771 119.222 94.0149 118.984 94.3804 118.51C94.7503 118.031 94.936 117.333 94.936 116.414C94.936 115.504 94.7503 114.814 94.3804 114.344C94.0149 113.87 93.4726 113.633 92.755 113.633C92.0463 113.633 91.51 113.866 91.149 114.331C90.7879 114.797 90.6067 115.491 90.6067 116.414ZM99.0485 112.843V115.84H103.058V112.843H104.142V119.999H103.058V116.773H99.0485V119.999H97.9654V112.843H99.0485ZM112.616 116.414C112.616 117.581 112.323 118.493 111.735 119.15C111.147 119.803 110.335 120.129 109.3 120.129C108.66 120.129 108.092 119.979 107.596 119.679C107.1 119.378 106.716 118.947 106.446 118.386C106.177 117.824 106.042 117.167 106.042 116.414C106.042 115.248 106.333 114.34 106.917 113.692C107.499 113.039 108.309 112.712 109.346 112.712C110.346 112.712 111.141 113.045 111.729 113.711C112.32 114.377 112.616 115.278 112.616 116.414ZM107.165 116.414C107.165 117.328 107.348 118.025 107.713 118.504C108.079 118.982 108.616 119.222 109.325 119.222C110.035 119.222 110.573 118.984 110.939 118.51C111.309 118.031 111.493 117.333 111.493 116.414C111.493 115.504 111.309 114.814 110.939 114.344C110.573 113.87 110.031 113.633 109.313 113.633C108.603 113.633 108.068 113.866 107.707 114.331C107.345 114.797 107.165 115.491 107.165 116.414ZM120.327 114.638C120.327 115.104 120.192 115.459 119.923 115.702C119.657 115.942 119.282 116.103 118.8 116.186V116.244C119.409 116.327 119.853 116.506 120.131 116.78C120.415 117.054 120.556 117.433 120.556 117.916C120.556 118.582 120.309 119.095 119.817 119.457C119.33 119.818 118.617 119.999 117.676 119.999H114.522V112.843H117.663C119.44 112.843 120.327 113.441 120.327 114.638ZM119.473 117.844C119.473 117.457 119.324 117.176 119.028 117.002C118.736 116.823 118.251 116.734 117.572 116.734H115.607V119.091H117.598C118.847 119.091 119.473 118.675 119.473 117.844ZM119.269 114.743C119.269 114.394 119.134 114.149 118.865 114.005C118.599 113.857 118.195 113.783 117.65 113.783H115.607V115.8H117.442C118.112 115.8 118.584 115.718 118.858 115.552C119.132 115.387 119.269 115.117 119.269 114.743Z" fill="black"/>
</svg>
