<svg xmlns="http://www.w3.org/2000/svg" width="126.2" height="64" viewBox="0 0 892 453" shape-rendering="geometricPrecision" text-rendering="geometricPrecision" image-rendering="optimizeQuality" fill-rule="evenodd" clip-rule="evenodd"><defs><style>.fil0,.fil1{fill:#fefefe}.fil1{fill-rule:nonzero}</style></defs><g id="Layer_x0020_1"><g id="_2348222036288"><path class="fil0" d="M692 220c6-3 13 0 17 4 4 5 3 13 1 19-3 8-43 37-49 43-10 7-60 46-36 5 10-18 27-36 41-50 8-8 15-15 26-21zm-479 32c1-2 24-35 41-28 2 7-2 8-6 11-8 6-26 17-35 17zm154 56c-3-25 68-98 78-92 6 3-16 32-18 35 3 5 2-1 5 4-11 9-21 18-32 28-5 5-27 24-33 25zm363-81c4-12 13-29 19-41 7-13 15-25 23-36 10-13 45-58 71-48 5 14-41 59-51 69-6 6-58 55-62 56zm-10-14c-4-1-4-3-9-6-36-18-86 51-100 83-4 10-3 6-15 16-4 3-6 5-12 5 0-9 30-61 30-77-1-10-11-14-21-13-19 2-48 21-65 32-2 1-3 3-5 4-3 3-17 14-21 15 2-5 22-34 27-41 5-6 7-9 0-13-8 2-31 33-37 41-3 4-36 40-44 33-9-12 24-48-6-45 2-8 10-17 11-26 4-27-39-27-78 38-13 22-8 19-35 39-6 4-19 13-27 10-7-5 18-28 27-42 24-33-22-28-28-31 1-9 24-24 23-36-6-4-14-3-20 1-9 6-19 16-25 27s1 12 4 18c-10 16-57 57-79 63-19 5-24-9-19-25 9-29 17-10 57-39 6-5 24-18 7-27-12-7-15-17-32-6-18 12-33 28-44 52-12 26-8 60 27 54 26-4 67-41 82-61 3-3 8-10 13-11 4-1 20-1 24 0 2 15-39 40-33 62 6 20 34 6 48-6 3-2 11-10 14-10-2 11-6 19 2 28 8 1 16-7 21-11 6-5 11-10 18-15 5-5 30-30 36-29-1 11-6 23 0 34 7 13 21-2 30-3 1 4 5 7 11 9l33-27c2-2 5-4 8-6 7-6 86-64 80-35 0 3-26 51-31 67-5 13-3 16 5 24 7-1 13-6 18-9 4-4 12-11 17-13-1 20 7 19 21 12 17-9 37-24 52-35 5-4 21-19 25-19 0 8-3 19-4 29-1 17-2 63 23 61 7 0 10-2 11-7-7 1-17 10-22-16-2-13-1-28 0-41 2-13 5-24 8-35 2-10 3-8 8-13 19-17 37-32 56-52 14-14 28-28 42-44 9-10 37-41 20-55-17-13-51 12-60 19-25 23-46 57-61 89-1 4-5 13-6 15z"/><path class="fil0" d="M100 286c0-8 65-130 77-155 30-66-15-76-57-53-17 10-32 20-45 33l-21 17c-7 7-13 12-19 19-6 6-33 37-35 43 7 10 11 8 20 1 6-5 12-9 18-16 6-6 31-28 32-36-3-3-5-3-6-6 2-7 10-11 17-17l21-15c95-61 76-12 39 55-16 31-33 61-48 92-8 16-16 30-24 46-4 8-7 16-11 24-5 10-10 18 4 22 10-5 39-38 47-46 21-21 46-50 66-72 8-9 15-16 22-24 8-9 15-16 22-24 4-5 8-8 12-13l80-81c23-21 51-44 79-59 11-6 23-10 37-9 18 0 23 7 32 15l4-3c-4-15-30-29-56-22-39 10-94 59-122 88-22 23-40 39-63 64L122 265c-7 8-15 20-22 21zM158 373c22 5 54 7 79 7 56-2 108-6 162-10 40-4 256-33 281 15 2 6 2 11 8 13 8-10-1-24-7-29-9-7-18-10-30-13-102-21-285 14-400 16-27 0-54-1-78-8-34-10-29-25-35-29-3-3-12-4-18-3-8 2-8 31 38 41zM746 308c-3-26 70-100 79-92 5 5-29 49-32 53-5 6-38 38-47 39zm69-45c0 11-7 30 3 38 5 5 12 1 17-2 5-2 10-7 13-9 19-15 23-22 36-35 3-4 11-9 8-15-4 1-11 10-15 14-12 12-25 26-39 36-23 15-6-25-6-26 1-4 3-10 1-14-3-4-7-3-9-4h-3c4-9 16-24 10-36-8-13-28-2-36 3-23 16-58 63-59 92-2 29 21 6 23 4 6-4 9-7 14-11l13-13c5-4 9-7 14-11 3-3 4-4 7-6 3-3 3-5 8-5z"/><g><path class="fil1" d="M499 421v6c0 1 0 4 1 9v16h2s0-1 1-1v-8-5-2-1h4c1 0 1-1 1-1 1 0 1-1 1-1s0-1-1-1h-6v-5-6-1-2h7c0-1 1-1 1-1v-1s-1 0-1-1h-4-1c-3 0-4 1-5 2v4zm17-5v14c1 6 1 11 1 13v7c0 1 1 2 1 2 1 0 1 1 2 1s2-1 4-1h2l1-1c0-1 0-1-1-1 0-1 0-1-1-1h-1l-2 1h-2v-1s-1-1-1-2 0-1 1-2v-2c0-3-1-7-1-14v-11-2c0-1 0-1-1-1 0 0 0-1-1-1 0 0 0 1-1 1v1zm19 4v26c1 2 1 3 2 4 2 1 3 2 4 2s2-1 3-2c0-1 1-3 1-6v-3-11c0-7 0-11-2-13v-1l-1-1h-1-1-1-1-1s-1 1-1 2-1 2-1 3zm3 8v-1-6-3h3c1 2 1 6 1 12v14c0 2 0 3-1 4v1c-1 0-1 0-2-1v-1c-1-1-1-1-1-2v-2-2-13zm12-12c0 2 0 4 1 6 0 3 1 6 1 7s0 3 1 6c0 3 0 6 1 8v5l1 2v1c0 1 1 1 1 1 1 0 1 0 2-1v-1-1h1v-1-1-1c1-3 1-6 1-8v1c1 4 1 7 1 7l1 2v2c0 1 0 1 1 2h1s1 0 1-1c0 0 0-1 1-1v-3l1-2v-2c1-3 1-7 1-11v-11-4-2h-2c-1 1-1 1-1 2v15c0 4 0 7-1 10v1s0-2-1-4c0-3-1-7-1-12-1-2-1-4-1-5v-2-1-1-1-1c-1-1-1-1-2-1 0 1-1 1-1 1v11c0 7-1 12-1 16l-1-1v-7c-1-3-1-6-1-7-1-1-1-3-2-6v-6l-1-1h-1-1v1zm25 5v15c1 2 1 4 1 5v3c0 2-1 3-1 5h1v2s1 1 2 1h7s0-1 1-1v-1-1h-8v-1-4c0-1 0-1 1-2v-2l-1-5h5s1 0 1-1v-1-1h-1-5v-4-5-2-2-1h7l1-1-1-1c-2-1-3-1-5-1s-4 1-4 2c-1 1-1 2-1 4zm18-3v7c1 3 1 6 1 9v17c0 1 0 1 1 1h1v-1c1-1 1-3 1-5v-4-3-2c1-1 2-1 3-1l1 3c1 2 2 4 2 5s0 1 1 2c0 2 1 4 1 5 0 0 1 0 1 1 1 0 1 0 1-1h1v-1l-1-2-1-2v-2c-1-2-1-3-2-6-1-2-2-3-2-4 1-1 2-2 2-3 1-1 1-3 1-4v-1-3c-1-2-1-3-2-4 0-1-1-2-2-3s-3-1-4-1h-3c0 1-1 1-1 1v2zm3 0h1c1 0 2 0 3 1 0 0 1 1 1 3 1 1 1 3 1 4v4c-1 2-3 3-5 4 0-4-1-7-1-9v-2-4-1zm19 8c0 2 1 4 1 5 1 0 1 0 1 1 1 0 1 1 2 1h1s0 1 1 1h1l1 1v13c-1 1-1 1-2 1h-1l-1-1v-6-1-2l-1-1h-1-1v6c0 3 0 4 1 6 0 1 1 1 1 1 1 1 2 1 3 1 2 0 3-1 4-2 0-1 1-2 1-4v-2-3-2-1-2c0-1-1-2-1-3-1-1-2-2-3-2h-1l-1-1s-1 0-1-1c0 0-1-1-1-2v-1-2c0-1 1-2 1-2 0-2 0-4 1-5h1c1 1 1 2 2 3v5s0 1 1 1c0 0 0 1 1 1l1-1v-1-1c0-2 0-3-1-5 0-2-1-3-3-4 0 0-1-1-2-1s-2 1-2 1c-2 2-2 4-2 7 0 0 0 1-1 2v2zm41 20c0 2 1 3 2 4 3 0 4-1 6-3l2 4v1h1c1 0 1-1 1-1v-1c0-1-1-3-2-5v-1c0-2 1-3 1-3l1-2v-2h-1-1s-1 0-1 1c0 0 0 1-1 2 0-2-1-4-2-8l1-1c0-1 1-2 1-3 1-3 2-5 2-7-1-1-1-2-1-3l-3-3c0-1-1-1-2-2-1 0-2 0-3 1s-1 2-1 4 1 5 2 8l1 6c-1 2-1 5-2 8-1 2-1 3-1 4v2zm3 1v-1-1c0-3 1-5 2-8 1 3 1 6 2 7-1 2-3 3-4 3zm0-29v-2l1 1c1 1 1 2 2 3l1 1c0 2 0 3-1 6l-1 1-1-3c0-1-1-3-1-5v-2zm41 4v9l1 7v6c0 3 0 5-1 6 0 1 0 1 1 1v1h3c2-1 4-2 5-3 2-2 3-4 4-6 0-2 1-4 1-6v-2-4c-1-2-1-5-2-7s-2-4-4-6-4-3-5-3h-2c-1 0-1 1-1 2v5zm2-4h2l2 2c1 2 3 4 3 6 1 3 2 6 2 10v3c-1 3-1 5-3 6-1 2-3 3-5 4 1-2 1-4 1-6v-1-3s-1-3-1-8v-3-6c-1-1-1-2-1-3v-1zm19 3v29s0 1 1 1c0 0 1 1 2 1h6c1 0 1-1 1-1 1 0 1 0 1-1 0 0 0-1-1-1h-7v-1-4-2-7h5l1-1v-1-1h-1-5v-4-5-2-2-1h7v-1-1h-1c-1-1-3-1-4-1-3 0-4 1-5 2v4zM740 429v10c1 4 1 7 2 8 1 2 2 3 4 4h3c1 0 2 0 3-1 0-1 1-2 1-3 1-2 1-4 1-7v-1l-1-1c-1 0-1 0-1 1-1 0-1 0-1 1 0 3 0 5-1 6 0 1 0 2-1 2 0 0 0 1-1 1 0 0 0-1-1-1s-2-1-3-2c0-2-1-4-1-7 0-4-1-7-1-10v-2c0-2 0-5 1-6 0-2 0-3 1-4 1 0 1-1 2-1 0 0 0 1 1 1s2 1 3 3c1 1 1 3 1 4v2c0 1 1 1 1 1 1 0 1 0 1-1 1 0 1 0 1-1v-1c0-2-1-4-2-6s-2-3-4-4h-2c-2 0-2 0-3 1-2 1-3 3-3 5v9zm22-9v7c0 4 0 9 1 15v4c0 2 1 3 2 4s2 2 3 2c2 0 2-1 3-2s1-3 1-6v-3-11c0-7 0-11-1-13 0 0-1 0-1-1v-1h-1-3-1c-1 0-1 1-2 2 0 1 0 2-1 3zm3 8v-1-6c0-1 1-2 1-3h2c1 2 2 6 2 12 0 4 0 8-1 11v7l-1 1s-1 0-1-1c-1 0-1-1-1-1v-2-2-2c-1-5-1-9-1-13zm14-10c0 1 0 3 1 5v28c0 1 1 1 1 1h1c1 0 1-1 1-1v-5-4-3-2c1-1 2-1 3-1l2 3c0 2 1 4 1 5 1 1 1 1 1 2 1 2 1 4 2 5l1 1 1-1v-3l-1-2-1-2c0-2-1-3-2-6-1-2-1-3-2-4 1-1 2-2 2-3 1-1 1-3 1-4v-1-3c0-2-1-3-1-4l-3-3c-1-1-2-1-4-1h-3v2c-1 0-1 0-1 1zm3 0h1c1 0 2 0 3 1 1 0 1 1 2 3 0 1 1 3 1 4s-1 3-1 4c-1 2-3 3-5 4v-9-2c-1-2-1-3-1-4v-1z"/></g></g></g></svg>